<svg width="418.4px" height="124.439990234375px" xmlns="http://www.w3.org/2000/svg" viewBox="40.80000000000001 12.780004882812499 418.4 124.439990234375" style="background: none;" preserveAspectRatio="xMidYMid"><defs>
  <filter id="editing-scratch" x="-100%" y="-100%" width="300%" height="300%">
    <!-- COLOR -->
    <feFlood flood-color="#ddd" flood-opacity="0.75" result="COLOR-blu"></feFlood>
    <feFlood flood-color="#666" flood-opacity="0.4" result="COLOR-red"></feFlood>
    <!-- COLOR END -->

    <!-- Texture -->
    <feTurbulence baseFrequency=".05" type="fractalNoise" numOctaves="3" seed="0" result="Texture_10"></feTurbulence>
    <feColorMatrix type="matrix" values="0 0 0 0 0,
    0 0 0 0 0,
    0 0 0 0 0,
    0 0 0 -2.1 1.1" in="Texture_10" result="Texture_20"></feColorMatrix>

    <feColorMatrix result="Texture_30" type="matrix" values="0 0 0 0 0,
    0 0 0 0 0,
    0 0 0 0 0,
    0 0 0 -1.7 1.8" in="Texture_10"></feColorMatrix>
    <!-- Texture -->

    <!-- FILL -->
    <feOffset dx="-3" dy="4" in="SourceAlpha" result="FILL_10"></feOffset>
    <feDisplacementMap scale="17" in="FILL_10" in2="Texture_10" result="FILL_20"></feDisplacementMap>
    <feComposite operator="in" in="Texture_30" in2="FILL_20" result="FILL_40"></feComposite>
    <feComposite operator="in" in="COLOR-blu" in2="FILL_40" result="FILL_50"></feComposite>
    <!-- FILL END-->

    <!-- OUTLINE -->
    <feMorphology operator="dilate" radius="3" in="SourceGraphic" result="OUTLINE_10"></feMorphology>
    <feComposite operator="out" in="OUTLINE_10" in2="SourceGraphic" result="OUTLINE_20"></feComposite>
    <feDisplacementMap scale="7" in="OUTLINE_20" in2="Texture_10" result="OUTLINE_30"></feDisplacementMap>
    <feComposite operator="arithmetic" k2="-1" k3="1" in="Texture_20" in2="OUTLINE_30" result="OUTLINE_40"></feComposite>
    <!-- OUTLINE END-->

    <!-- BEVEL OUTLINE -->
    <feConvolveMatrix order="8,8" divisor="1" kernelMatrix="1 0 0 0 0 0 0 0 0 1 0 0 0 0 0 0 0 0 1 0 0 0 0 0 0 0 0 1 0 0 0 0 0 0 0 0 1 0 0 0 0 0 0 0 0 1 0 0 0 0 0 0 0 0 1 0 0 0 0 0 0 0 0 1 " in="SourceGraphic" result="BEVEL_10"></feConvolveMatrix>
    <feMorphology operator="dilate" radius="2" in="BEVEL_10" result="BEVEL_20"></feMorphology>
    <feComposite operator="out" in="BEVEL_20" in2="BEVEL_10" result="BEVEL_30"></feComposite>
    <feDisplacementMap scale="7" in="BEVEL_30" in2="Texture_10" result="BEVEL_40"></feDisplacementMap>
    <feComposite operator="arithmetic" k2="-1" k3="1" in="Texture_20" in2="BEVEL_40" result="BEVEL_50"></feComposite>
    <feOffset dx="-7" dy="-7" in="BEVEL_50" result="BEVEL_60"></feOffset>
    <feComposite operator="out" in="BEVEL_60" in2="OUTLINE_10" result="BEVEL_70"></feComposite>
    <!-- BEVEL OUTLINE END -->

    <!-- BEVEL FILL -->
    <feOffset dx="-9" dy="-9" in="BEVEL_10" result="BEVEL-FILL_10"></feOffset>
    <feComposite operator="out" in="BEVEL-FILL_10" in2="OUTLINE_10" result="BEVEL-FILL_20"></feComposite>
    <feDisplacementMap scale="17" in="BEVEL-FILL_20" in2="Texture_10" result="BEVEL-FILL_30"></feDisplacementMap>
    <feComposite operator="in" in="COLOR-red" in2="BEVEL-FILL_30" result="BEVEL-FILL_50"></feComposite> <!-- -->
    <!-- BEVEL FILL END-->

    <feMerge result="merge2">
     <feMergeNode in="BEVEL-FILL_50"></feMergeNode>
     <feMergeNode in="BEVEL_70"></feMergeNode>
     <feMergeNode in="FILL_50"></feMergeNode>
      <feMergeNode in="OUTLINE_40"></feMergeNode>
    </feMerge>
  </filter>
</defs>
<g filter="url(#editing-scratch)"><g transform="translate(103.6000018119812, 97.39999961853027)"><path d="M27.01-20.61L39.94-21.76L39.94-21.76Q35.33-11.65 35.33 0.06L35.33 0.06L35.33 0.06Q33.60 1.28 31.07 1.28L31.07 1.28L31.07 1.28Q28.54 1.28 26.94 0.10L26.94 0.10L26.94 0.10Q25.34-1.09 25.02-2.30L25.02-2.30L25.02-2.30Q23.42-0.64 20.83 0.32L20.83 0.32L20.83 0.32Q18.24 1.28 15.49 1.28L15.49 1.28L15.49 1.28Q12.74 1.28 10.34 0.38L10.34 0.38L10.34 0.38Q7.94-0.51 6.08-2.50L6.08-2.50L6.08-2.50Q1.98-6.85 1.98-15.10L1.98-15.10L1.98-15.10Q1.98-27.90 8.83-35.58L8.83-35.58L8.83-35.58Q15.87-43.52 28.35-43.52L28.35-43.52L28.35-43.52Q36.99-43.52 40.06-39.04L40.06-39.04L40.06-39.04Q41.02-37.63 41.02-35.94L41.02-35.94L41.02-35.94Q41.02-34.24 40.29-32.80L40.29-32.80L40.29-32.80Q39.55-31.36 38.40-30.21L38.40-30.21L38.40-30.21Q35.65-27.65 32.26-27.65L32.26-27.65L32.26-27.65Q30.91-27.65 29.63-28.10L29.63-28.10L29.63-28.10Q29.89-30.02 29.89-32.26L29.89-32.26L29.89-32.26Q29.89-34.50 29.73-35.52L29.73-35.52L29.73-35.52Q29.57-36.54 29.18-37.38L29.18-37.38L29.18-37.38Q28.35-39.10 26.53-39.10L26.53-39.10L26.53-39.10Q24.70-39.10 22.69-37.15L22.69-37.15L22.69-37.15Q20.67-35.20 19.07-32L19.07-32L19.07-32Q15.55-24.83 15.55-16.19L15.55-16.19L15.55-16.19Q15.55-12.22 17.09-9.41L17.09-9.41L17.09-9.41Q18.75-6.34 21.70-6.34L21.70-6.34L21.70-6.34Q22.72-6.34 23.65-6.85L23.65-6.85L23.65-6.85Q24.58-7.36 24.96-7.74L24.96-7.74L27.01-20.61ZM45.86-1.92L45.86-1.92L45.86-1.92Q44.35-3.58 43.68-6.21L43.68-6.21L43.68-6.21Q43.01-8.83 43.01-13.12L43.01-13.12L43.01-13.12Q43.01-17.41 44.48-21.31L44.48-21.31L44.48-21.31Q45.95-25.22 48.64-28.03L48.64-28.03L48.64-28.03Q54.14-33.92 63.23-33.92L63.23-33.92L63.23-33.92Q66.50-33.92 68.86-32.83L68.86-32.83L79.81-33.92L75.07-8.96L75.07-8.96Q74.88-8.19 74.88-6.78L74.88-6.78L74.88-6.78Q74.88-5.38 75.74-4.48L75.74-4.48L75.74-4.48Q76.61-3.58 77.89-3.46L77.89-3.46L77.89-3.46Q77.25-1.28 74.91 0L74.91 0L74.91 0Q72.58 1.28 69.95 1.28L69.95 1.28L69.95 1.28Q67.33 1.28 65.57 0.29L65.57 0.29L65.57 0.29Q63.81-0.70 63.30-2.37L63.30-2.37L63.30-2.37Q62.27-0.77 60.10 0.26L60.10 0.26L60.10 0.26Q57.92 1.28 55.01 1.28L55.01 1.28L55.01 1.28Q52.10 1.28 49.73 0.51L49.73 0.51L49.73 0.51Q47.36-0.26 45.86-1.92ZM59.36-27.90L59.36-27.90L59.36-27.90Q58.62-26.75 57.98-24.80L57.98-24.80L57.98-24.80Q57.34-22.85 56.29-17.63L56.29-17.63L56.29-17.63Q55.23-12.42 55.23-8.70L55.23-8.70L55.23-8.70Q55.23-4.99 55.81-3.90L55.81-3.90L55.81-3.90Q56.38-2.82 57.41-2.82L57.41-2.82L57.41-2.82Q59.46-2.82 60.96-4.77L60.96-4.77L60.96-4.77Q62.46-6.72 63.04-10.18L63.04-10.18L66.43-28.93L66.43-28.93Q65.09-30.08 63.52-30.08L63.52-30.08L63.52-30.08Q61.95-30.08 61.02-29.57L61.02-29.57L61.02-29.57Q60.10-29.06 59.36-27.90ZM129.34 1.28L129.34 1.28L129.34 1.28Q121.60 1.28 121.60-4.74L121.60-4.74L121.60-4.74Q121.60-7.36 122.72-12.45L122.72-12.45L122.72-12.45Q123.84-17.54 124.22-19.58L124.22-19.58L124.22-19.58Q125.12-24.26 125.12-25.73L125.12-25.73L125.12-25.73Q125.12-28.99 122.69-28.99L122.69-28.99L122.69-28.99Q121.09-28.99 119.55-26.78L119.55-26.78L119.55-26.78Q118.02-24.58 117.31-20.16L117.31-20.16L113.34 0L100.86 1.28L104.32-16.13L104.32-16.13Q104.90-19.01 105.41-22.27L105.41-22.27L105.41-22.27Q105.92-25.54 105.92-26.05L105.92-26.05L105.92-26.05Q105.92-28.99 103.74-28.99L103.74-28.99L103.74-28.99Q102.27-28.99 100.67-26.82L100.67-26.82L100.67-26.82Q99.07-24.64 98.18-20.16L98.18-20.16L94.27 0L81.66 1.28L88.38-32.64L98.82-33.92L97.73-27.46L97.73-27.46Q99.39-30.91 102.46-32.42L102.46-32.42L102.46-32.42Q105.54-33.92 110.34-33.92L110.34-33.92L110.34-33.92Q113.09-33.92 114.88-32.58L114.88-32.58L114.88-32.58Q116.67-31.23 117.25-29.06L117.25-29.06L117.25-29.06Q118.34-31.30 121.12-32.61L121.12-32.61L121.12-32.61Q123.90-33.92 127.33-33.92L127.33-33.92L127.33-33.92Q130.75-33.92 132.45-33.18L132.45-33.18L132.45-33.18Q134.14-32.45 135.17-31.23L135.17-31.23L135.17-31.23Q136.90-28.99 136.90-24.90L136.90-24.90L136.90-24.90Q136.90-20.86 135.17-12.48L135.17-12.48L135.17-12.48Q134.27-8.38 134.27-6.88L134.27-6.88L134.27-6.88Q134.27-5.38 135.14-4.48L135.14-4.48L135.14-4.48Q136-3.58 137.28-3.46L137.28-3.46L137.28-3.46Q136.64-1.28 134.43 0L134.43 0L134.43 0Q132.22 1.28 129.34 1.28ZM168.13-10.82L168.13-10.82L168.13-10.82Q169.73-9.73 169.73-7.33L169.73-7.33L169.73-7.33Q169.73-4.93 168.51-3.39L168.51-3.39L168.51-3.39Q167.30-1.86 165.31-0.83L165.31-0.83L165.31-0.83Q161.22 1.28 156.80 1.28L156.80 1.28L156.80 1.28Q152.38 1.28 149.79 0.32L149.79 0.32L149.79 0.32Q147.20-0.64 145.47-2.43L145.47-2.43L145.47-2.43Q142.08-5.82 142.08-12.03L142.08-12.03L142.08-12.03Q142.08-21.70 147.33-27.58L147.33-27.58L147.33-27.58Q152.96-33.92 162.75-33.92L162.75-33.92L162.75-33.92Q168.83-33.92 171.84-31.36L171.84-31.36L171.84-31.36Q174.08-29.44 174.08-26.30L174.08-26.30L174.08-26.30Q174.08-15.04 154.62-15.04L154.62-15.04L154.62-15.04Q154.37-13.38 154.37-11.97L154.37-11.97L154.37-11.97Q154.37-9.02 155.68-7.90L155.68-7.90L155.68-7.90Q156.99-6.78 159.42-6.78L159.42-6.78L159.42-6.78Q161.86-6.78 164.45-7.90L164.45-7.90L164.45-7.90Q167.04-9.02 168.13-10.82ZM155.07-17.79L155.07-17.79L155.07-17.79Q159.62-17.79 162.24-20.61L162.24-20.61L162.24-20.61Q164.86-23.30 164.86-27.58L164.86-27.58L164.86-27.58Q164.86-29.06 164.32-29.86L164.32-29.86L164.32-29.86Q163.78-30.66 162.69-30.66L162.69-30.66L162.69-30.66Q161.60-30.66 160.67-30.24L160.67-30.24L160.67-30.24Q159.74-29.82 158.78-28.42L158.78-28.42L158.78-28.42Q156.42-25.22 155.07-17.79ZM217.54 1.28L217.54 1.28L217.54 1.28Q209.34 1.28 208.58-10.37L208.58-10.37L197.57-10.37L197.57-10.37Q196.29-7.42 195.39-4.86L195.39-4.86L193.73 0L184.77 0L204.93-42.24L218.69-42.24L221.38-11.14L221.38-11.14Q222.02-4.42 224.58-2.43L224.58-2.43L224.58-2.43Q222.72 1.28 217.54 1.28ZM203.07-23.17L199.55-15.04L208.38-15.04L207.62-31.49L207.62-33.22L203.07-23.17ZM253.31-42.69L253.31-42.69L253.31-42.69Q268.99-42.69 268.99-31.62L268.99-31.62L268.99-31.62Q268.99-25.54 265.09-21.89L265.09-21.89L265.09-21.89Q261.25-18.24 254.53-18.24L254.53-18.24L254.53-18.24Q251.39-18.24 248.96-20.03L248.96-20.03L248.96-20.03Q247.81-20.80 247.04-21.82L247.04-21.82L247.04-21.82Q251.71-21.82 254.18-24.67L254.18-24.67L254.18-24.67Q256.64-27.52 256.64-33.09L256.64-33.09L256.64-33.09Q256.64-38.66 251.14-38.66L251.14-38.66L249.60-38.66L249.60-38.66Q249.22-38.66 248.90-38.59L248.90-38.59L241.54 0L227.65 0L235.52-41.92L235.52-41.92Q242.37-42.56 246.34-42.62L246.34-42.62L246.34-42.62Q250.30-42.69 253.31-42.69ZM282.56 0L268.61 0L276.74-42.24L290.82-42.24L282.56 0Z" fill="#000"></path></g></g><style>text {
  font-size: 64px;
  font-family: Arial Black;
  dominant-baseline: central;
  text-anchor: middle;
}</style></svg>